<?xml version="1.0" encoding="utf-8" ?><svg xmlns="http://www.w3.org/2000/svg" xmlns:xlink="http://www.w3.org/1999/xlink" width="1024" height="1024" viewBox="0 0 1024 1024"><defs><linearGradient id="gradient_0" gradientUnits="userSpaceOnUse" x1="507.47583" y1="542.41797" x2="515.19403" y2="330.51212"><stop offset="0" stop-color="#A2A29F"/><stop offset="1" stop-color="#CACAC6"/></linearGradient></defs><path fill="url(#gradient_0)" d="M323.882 290.744C323.493 288.044 322.279 279.319 322.539 277.01C323.92 264.714 326.711 251.414 329.099 239.258C330.268 233.313 331.785 223.661 333.386 218.467L334.108 218.311L335.631 219.552C344.326 227.965 355.406 240.397 363.739 249.427C379.098 265.756 394.307 282.225 409.365 298.832C412.658 302.394 437.728 328.802 438.601 330.737C440.044 331.715 440.06 332.048 441.832 332.053C453.933 332.091 466.303 332.039 478.384 332.033L553.468 331.998C559.501 331.996 581.128 331.434 585.43 332.882C586.546 345.323 585.567 362.393 586.194 375.311C586.371 378.973 586.816 400.735 586.468 403.453C586.606 409.908 587.837 443.907 586.221 448.208L586.713 448.697C591.393 449.381 621.513 490.18 625.451 491.656C644.785 496.061 664.253 499.784 683.588 504.052C699.919 507.657 715.931 511.892 732.367 515.337L732.706 515.822C729.53 519.354 711.241 535.109 707.029 537.879C703.929 541.742 696.78 545.562 694.897 547.791C695.254 558.401 702.603 578.686 705.151 589.672C705.742 592.22 707.535 597.64 707.849 599.981C710.304 607.772 712.487 615.647 714.393 623.59C704.398 636.232 685.442 659.99 674.137 671.207C670.861 676.35 653.083 696.073 648.178 701.695C647.172 702.848 633.502 707.481 630.672 708.482L595.283 720.886L543.784 739.004C534.794 742.159 525.805 745.606 516.681 748.346C515.011 748.847 513.702 749.085 511.995 748.599C499.158 744.936 381.425 704.806 378.093 701.783C377.907 701.615 377.731 701.436 377.548 701.264C368.415 692.684 358.474 680.339 350.85 670.298C347.704 667.514 341.262 659.67 338.263 656.181C329.147 645.58 320.367 634.831 311.184 624.254L315.219 610.371C315.287 608.752 318.854 596.221 319.502 593.665C323.285 578.744 327.977 563.567 331.257 548.553C319.821 537.14 306.489 527.12 293.83 517.134C292.846 516.357 293.05 515.987 293.067 514.929C297.065 505.703 304.352 492.51 309.148 483.347L328.978 444.728C330.924 440.991 339.2 424.03 340.967 421.993C341.316 420.785 341.32 419.523 341.399 418.259C340.94 415.835 340.559 409.896 340.157 406.933L336.188 379.486C331.997 350.589 327.269 319.58 323.882 290.744Z"/><path fill="#1E1E1D" d="M625.451 491.656C644.785 496.061 664.253 499.784 683.588 504.052C699.919 507.657 715.931 511.892 732.367 515.337L732.706 515.822C729.53 519.354 711.241 535.109 707.029 537.879C703.929 541.742 696.78 545.562 694.897 547.791C695.254 558.401 702.603 578.686 705.151 589.672C705.742 592.22 707.535 597.64 707.849 599.981C710.304 607.772 712.487 615.647 714.393 623.59C704.398 636.232 685.442 659.99 674.137 671.207C670.861 676.35 653.083 696.073 648.178 701.695C647.172 702.848 633.502 707.481 630.672 708.482L595.283 720.886L543.784 739.004C534.794 742.159 525.805 745.606 516.681 748.346C515.011 748.847 513.702 749.085 511.995 748.599C499.158 744.936 381.425 704.806 378.093 701.783C377.907 701.615 377.731 701.436 377.548 701.264C368.415 692.684 358.474 680.339 350.85 670.298C347.704 667.514 341.262 659.67 338.263 656.181C329.147 645.58 320.367 634.831 311.184 624.254L315.219 610.371C315.287 608.752 318.854 596.221 319.502 593.665C323.285 578.744 327.977 563.567 331.257 548.553L332.182 549.86C336.467 563.571 340.273 584.488 343.363 598.92C345.57 598.722 358.367 593.876 361.704 592.84L400.157 581.129C403.814 580.049 415.981 577.259 418.332 575.769L418.918 575.957C422.747 574.033 432.504 567.083 436.27 564.473C440.306 561.982 452.48 552.707 456.355 553.249C459.072 555.747 455.702 553.898 457.702 556.779C459.135 553.638 459.115 552.171 462.539 551.222L462.451 548.058C464.177 543.971 487.95 500.086 490.253 498.18L491.02 498.348C492.957 502.516 491.702 519.313 493.907 525.389C494.172 531.335 494.896 537.257 495.539 543.177C499.045 543.145 528.389 542.576 529.571 543.121C529.964 544.633 530.159 545.595 530.427 547.14C530.34 538.001 532.487 524.743 533.043 514.911C534.098 511.132 534.481 500.9 535.046 496.709C537.737 501.281 562.881 546.672 562.981 546.725C563.469 546.175 564.131 545.478 564.567 544.914L565.398 546.511L566.635 545.371C581.81 531.854 598.601 516.711 613.336 502.806C616.087 499.66 622.077 493.793 625.451 491.656Z"/><path fill="#777874" d="M462.451 548.058C464.177 543.971 487.95 500.086 490.253 498.18L491.02 498.348C492.957 502.516 491.702 519.313 493.907 525.389C494.172 531.335 494.896 537.257 495.539 543.177C499.045 543.145 528.389 542.576 529.571 543.121C529.964 544.633 530.159 545.595 530.427 547.14C531.078 551.88 531.732 557.773 532.566 562.395C531.367 566.251 531.359 570.818 531.501 574.835C532.266 596.472 532.402 618.104 532.921 639.739C532.979 642.186 533.334 645.202 532.715 647.555C525.649 647.446 518.363 647.861 511.264 647.932C508.598 647.958 494.717 647.37 493.274 648.503L492.333 650.009C488.726 655.594 484.533 661.919 481.217 667.632L480.768 667.928C483.011 670.134 485.133 672.31 487.597 674.269C484.475 673.938 483.15 671.684 480.999 669.232C476.942 673.285 474.787 673.147 474.522 679.067L472.205 675.033C468.551 669.593 465.975 661.48 461.999 657.84C462.923 655.502 456.679 645.769 455.25 643.07C454.176 641.198 452.729 638.38 451.856 636.385C447.22 625.8 439.914 615.293 435.36 604.873C431.832 598.518 422.782 580.829 418.918 575.957C422.747 574.033 432.504 567.083 436.27 564.473C440.306 561.982 452.48 552.707 456.355 553.249C459.072 555.747 455.702 553.898 457.702 556.779C459.135 553.638 459.115 552.171 462.539 551.222L462.451 548.058Z"/><defs><linearGradient id="gradient_1" gradientUnits="userSpaceOnUse" x1="501.21124" y1="542.96948" x2="522.01562" y2="648.17773"><stop offset="0" stop-color="#B5B5B1"/><stop offset="1" stop-color="#D7D7D4"/></linearGradient></defs><path fill="url(#gradient_1)" d="M495.539 543.177C499.045 543.145 528.389 542.576 529.571 543.121C529.964 544.633 530.159 545.595 530.427 547.14C531.078 551.88 531.732 557.773 532.566 562.395C531.367 566.251 531.359 570.818 531.501 574.835C532.266 596.472 532.402 618.104 532.921 639.739C532.979 642.186 533.334 645.202 532.715 647.555C525.649 647.446 518.363 647.861 511.264 647.932C508.598 647.958 494.717 647.37 493.274 648.503L492.333 650.009C493.605 651.623 494.637 596.021 494.09 591.065C493.395 584.779 494.322 571.841 492.913 564.329C493.533 557.524 495.51 550.048 495.539 543.177Z"/><defs><linearGradient id="gradient_2" gradientUnits="userSpaceOnUse" x1="468.87888" y1="610.85773" x2="447.93088" y2="613.48395"><stop offset="0" stop-color="#555652"/><stop offset="1" stop-color="#979794"/></linearGradient></defs><path fill="url(#gradient_2)" d="M462.539 551.222L462.563 553.246C463.395 559.67 463.951 566.567 464.401 573.042C466.761 607.067 470.82 640.948 472.205 675.033C468.551 669.593 465.975 661.48 461.999 657.84C462.923 655.502 456.679 645.769 455.25 643.07C454.176 641.198 452.729 638.38 451.856 636.385C447.22 625.8 439.914 615.293 435.36 604.873C431.832 598.518 422.782 580.829 418.918 575.957C422.747 574.033 432.504 567.083 436.27 564.473C440.306 561.982 452.48 552.707 456.355 553.249C459.072 555.747 455.702 553.898 457.702 556.779C459.135 553.638 459.115 552.171 462.539 551.222Z"/><defs><linearGradient id="gradient_3" gradientUnits="userSpaceOnUse" x1="462.53598" y1="572.17688" x2="423.08112" y2="585.27856"><stop offset="0" stop-color="#545552"/><stop offset="1" stop-color="#A1A19F"/></linearGradient></defs><path fill="url(#gradient_3)" d="M462.539 551.222L462.563 553.246L461.858 552.382C459.813 553.284 457.767 558.901 456.81 561.197C453.536 569.048 448.272 577.139 445.365 585.053C443.599 588.519 436.861 603.142 435.36 604.873C431.832 598.518 422.782 580.829 418.918 575.957C422.747 574.033 432.504 567.083 436.27 564.473C440.306 561.982 452.48 552.707 456.355 553.249C459.072 555.747 455.702 553.898 457.702 556.779C459.135 553.638 459.115 552.171 462.539 551.222Z"/><defs><linearGradient id="gradient_4" gradientUnits="userSpaceOnUse" x1="449.56503" y1="608.3996" x2="436.37469" y2="609.4068"><stop offset="0" stop-color="#91918E"/><stop offset="1" stop-color="#ACACA9"/></linearGradient></defs><path fill="url(#gradient_4)" d="M445.365 585.053L446.363 585.501C448.192 593.172 449.893 600.394 449.836 608.405C449.787 615.204 449.055 620.788 449.797 627.656C450.281 632.132 455.586 640.869 455.25 643.07C454.176 641.198 452.729 638.38 451.856 636.385C447.22 625.8 439.914 615.293 435.36 604.873C436.861 603.142 443.599 588.519 445.365 585.053Z"/><path fill="#A7A7A4" d="M474.466 674.093C475.456 665.308 476.673 657.079 478.309 648.373C483.531 620.579 487.294 592.024 492.913 564.329C494.322 571.841 493.395 584.779 494.09 591.065C494.637 596.021 493.605 651.623 492.333 650.009C488.726 655.594 484.533 661.919 481.217 667.632L480.768 667.928C479.441 670.171 476.536 672.324 474.466 674.093Z"/><defs><linearGradient id="gradient_5" gradientUnits="userSpaceOnUse" x1="625.99237" y1="492.17505" x2="668.41608" y2="561.7373"><stop offset="0" stop-color="#434440"/><stop offset="1" stop-color="#888986"/></linearGradient></defs><path fill="url(#gradient_5)" d="M625.451 491.656C644.785 496.061 664.253 499.784 683.588 504.052C699.919 507.657 715.931 511.892 732.367 515.337L732.706 515.822C729.53 519.354 711.241 535.109 707.029 537.879C703.929 541.742 696.78 545.562 694.897 547.791L693.792 548.884C691.542 555.406 684.005 597.341 681.626 599.382C677.561 595.647 665.396 592.663 659.597 591.297C652.492 588.947 609.279 576.852 607.627 575.588L606.801 575.583C604.479 574.966 593.057 567.039 589.948 565.037L586.713 562.786C581.299 559.051 575.86 555.171 570.253 551.713C565.282 548.647 567.711 551.533 563.899 552.146C564.1 549.372 563.886 548.968 565.398 546.511L566.635 545.371C581.81 531.854 598.601 516.711 613.336 502.806C616.087 499.66 622.077 493.793 625.451 491.656Z"/><path fill="#D9D9D7" d="M661.977 554.69C667.592 554.029 690.879 547.73 693.792 548.884C691.542 555.406 684.005 597.341 681.626 599.382C677.561 595.647 665.396 592.663 659.597 591.297C652.492 588.947 609.279 576.852 607.627 575.588C623.194 569.678 646.616 559.112 661.977 554.69Z"/><defs><linearGradient id="gradient_6" gradientUnits="userSpaceOnUse" x1="574.31702" y1="520.43909" x2="625.66479" y2="535.13776"><stop offset="0" stop-color="#040402"/><stop offset="1" stop-color="#2F2F30"/></linearGradient></defs><path fill="url(#gradient_6)" d="M613.336 502.806C619.963 507.477 626.625 511.335 632.996 515.777C625.346 524.614 616.097 537.947 608.746 545.902C601.875 547.303 576.757 546.534 568.401 546.706C567.281 546.729 567.374 546.381 566.635 545.371C581.81 531.854 598.601 516.711 613.336 502.806Z"/><path fill="#81817E" d="M661.653 549.223C672.864 545.718 680.985 543.816 693.038 543.583C695.257 543.541 694.931 543.573 696.146 544.857C700.245 544.553 703.037 538.1 707.029 537.879C703.929 541.742 696.78 545.562 694.897 547.791L693.792 548.884C690.879 547.73 667.592 554.029 661.977 554.69L661.698 553.556L659.68 552.591C659.641 551.29 660.631 550.566 661.653 549.223Z"/><defs><linearGradient id="gradient_7" gradientUnits="userSpaceOnUse" x1="582.33484" y1="541.4483" x2="587.80121" y2="554.88611"><stop offset="0" stop-color="#171717"/><stop offset="1" stop-color="#3F3F3E"/></linearGradient></defs><path fill="url(#gradient_7)" d="M566.635 545.371C567.374 546.381 567.281 546.729 568.401 546.706C576.757 546.534 601.875 547.303 608.746 545.902C601.991 556.95 577.571 547.132 572.751 551.1C573.977 554.496 587.373 561.334 587.159 562.694L586.713 562.786C581.299 559.051 575.86 555.171 570.253 551.713C565.282 548.647 567.711 551.533 563.899 552.146C564.1 549.372 563.886 548.968 565.398 546.511L566.635 545.371Z"/><path fill="#81817E" d="M535.046 496.709C537.737 501.281 562.881 546.672 562.981 546.725C563.469 546.175 564.131 545.478 564.567 544.914L565.398 546.511C563.886 548.968 564.1 549.372 563.899 552.146C567.711 551.533 565.282 548.647 570.253 551.713C575.86 555.171 581.299 559.051 586.713 562.786L589.948 565.037C593.057 567.039 604.479 574.966 606.801 575.583C602.508 581.05 594.864 597.977 590.317 605.561C588.78 607.636 588.587 608.166 587.636 610.59C584.801 615.954 581.625 620.801 579.226 626.394C578.129 628.422 571.692 640.075 571.274 641.612C569.579 644.41 562.026 656.762 561.287 659.168C559.578 663.519 557.079 668.401 554.863 672.531L552.04 677.766L551.656 676.527L550.456 676.683C548.31 673.751 548.086 671.344 545.856 668.554L545.027 667.783C541.713 666.878 538.168 666.129 534.803 665.364C535.551 661.378 535.696 660.003 537.698 656.45C536.804 654.043 533.4 650.932 532.715 647.555C533.334 645.202 532.979 642.186 532.921 639.739C532.402 618.104 532.266 596.472 531.501 574.835C531.359 570.818 531.367 566.251 532.566 562.395C531.732 557.773 531.078 551.88 530.427 547.14C530.34 538.001 532.487 524.743 533.043 514.911C534.098 511.132 534.481 500.9 535.046 496.709Z"/><defs><linearGradient id="gradient_8" gradientUnits="userSpaceOnUse" x1="556.3736" y1="612.02301" x2="579.51276" y2="615.29193"><stop offset="0" stop-color="#5E5F5B"/><stop offset="1" stop-color="#9F9F9C"/></linearGradient></defs><path fill="url(#gradient_8)" d="M563.899 552.146C567.711 551.533 565.282 548.647 570.253 551.713C575.86 555.171 581.299 559.051 586.713 562.786L589.948 565.037C593.057 567.039 604.479 574.966 606.801 575.583C602.508 581.05 594.864 597.977 590.317 605.561C588.78 607.636 588.587 608.166 587.636 610.59C584.801 615.954 581.625 620.801 579.226 626.394C578.129 628.422 571.692 640.075 571.274 641.612C569.579 644.41 562.026 656.762 561.287 659.168C559.578 663.519 557.079 668.401 554.863 672.531C552.539 664.764 556.549 625.624 557.764 615.646C558.387 605.604 559.624 595.068 560.572 585.023C560.859 581.99 561.305 574.549 561.789 572.095C562.207 572.959 561.908 572.545 562.768 573.273C563.793 571.564 564.113 567.133 564.941 564.673C565.75 562.454 566.097 558.961 565.833 556.599C565.663 555.072 565.833 555.711 564.336 554.517C564.274 555.858 564.44 557.971 563.739 558.786L563.355 558.188C563.429 555.939 563.604 554.382 563.899 552.146Z"/><defs><linearGradient id="gradient_9" gradientUnits="userSpaceOnUse" x1="583.28711" y1="582.57788" x2="599.89026" y2="588.80023"><stop offset="0" stop-color="#858682"/><stop offset="1" stop-color="#A3A39F"/></linearGradient></defs><path fill="url(#gradient_9)" d="M589.948 565.037C593.057 567.039 604.479 574.966 606.801 575.583C602.508 581.05 594.864 597.977 590.317 605.561C588.681 603.586 584.035 593.459 582.645 590.547L581.841 588.56L582.691 588.616C585.64 580.299 588.509 573.836 589.948 565.037Z"/><defs><linearGradient id="gradient_10" gradientUnits="userSpaceOnUse" x1="561.14551" y1="564.07727" x2="587.99805" y2="575.07202"><stop offset="0" stop-color="#454644"/><stop offset="1" stop-color="#8B8B87"/></linearGradient></defs><path fill="url(#gradient_10)" d="M563.899 552.146C567.711 551.533 565.282 548.647 570.253 551.713C575.86 555.171 581.299 559.051 586.713 562.786L589.948 565.037C588.509 573.836 585.64 580.299 582.691 588.616L581.841 588.56C576.95 579.839 574.508 569.2 568.343 559.934C568.874 562.087 569.108 564.007 569.569 566.083L569.484 566.072L566.808 557.824L567.782 559.182C567.079 556.222 567.144 555.787 564.336 554.517C564.274 555.858 564.44 557.971 563.739 558.786L563.355 558.188C563.429 555.939 563.604 554.382 563.899 552.146Z"/><path fill="#A7A7A4" d="M579.226 626.394C576.799 622.269 579.752 595.996 581.575 591.02L582.645 590.547C584.035 593.459 588.681 603.586 590.317 605.561C588.78 607.636 588.587 608.166 587.636 610.59C584.801 615.954 581.625 620.801 579.226 626.394Z"/><path fill="#777874" d="M564.941 564.673C565.46 568.218 562.097 581.902 561.645 586.523C560.319 600.11 561.05 613.177 558.649 626.721C557.5 622.859 560.957 621.4 557.764 615.646C558.387 605.604 559.624 595.068 560.572 585.023C560.859 581.99 561.305 574.549 561.789 572.095C562.207 572.959 561.908 572.545 562.768 573.273C563.793 571.564 564.113 567.133 564.941 564.673Z"/><path fill="#A7A7A4" d="M532.566 562.395C538.746 591.973 542.96 622.528 548.535 652.279C550.103 660.652 552.533 668.074 551.656 676.527L550.456 676.683C548.31 673.751 548.086 671.344 545.856 668.554L545.027 667.783C541.713 666.878 538.168 666.129 534.803 665.364C535.551 661.378 535.696 660.003 537.698 656.45C536.804 654.043 533.4 650.932 532.715 647.555C533.334 645.202 532.979 642.186 532.921 639.739C532.402 618.104 532.266 596.472 531.501 574.835C531.359 570.818 531.367 566.251 532.566 562.395Z"/><path fill="#1E1E1D" d="M534.803 665.364C535.551 661.378 535.696 660.003 537.698 656.45C540.077 660.017 542.945 664.097 545.027 667.783C541.713 666.878 538.168 666.129 534.803 665.364Z"/><path fill="#343433" d="M564.336 554.517C565.833 555.711 565.663 555.072 565.833 556.599C566.097 558.961 565.75 562.454 564.941 564.673C564.113 567.133 563.793 571.564 562.768 573.273C561.908 572.545 562.207 572.959 561.789 572.095C562.029 569.126 562.642 560.546 563.355 558.188L563.739 558.786C564.44 557.971 564.274 555.858 564.336 554.517Z"/><path fill="#CFCFCB" d="M606.801 575.583L607.627 575.588C609.279 576.852 652.492 588.947 659.597 591.297C665.396 592.663 677.561 595.647 681.626 599.382C679.976 600.077 678.461 600.717 676.85 601.496L672.716 603.284C667.861 605.873 663.065 608.488 658.078 610.817C655.302 612.173 652.508 613.491 649.696 614.771C647.016 616.812 634.852 622.356 631.057 624.327C614.097 633.141 596.545 641.167 579.599 650.008C575.42 652.165 564.076 657.116 561.287 659.168C562.026 656.762 569.579 644.41 571.274 641.612C571.692 640.075 578.129 628.422 579.226 626.394C581.625 620.801 584.801 615.954 587.636 610.59C588.587 608.166 588.78 607.636 590.317 605.561C594.864 597.977 602.508 581.05 606.801 575.583Z"/><path fill="#A7A7A4" d="M606.801 575.583L607.627 575.588C609.279 576.852 652.492 588.947 659.597 591.297C656.588 591.519 655.557 589.744 652.722 589.773C638.221 589.919 624 588.084 610.191 593.51C602.575 596.502 599.695 601.985 592.722 604.705L591.865 605.032C590.455 607.22 589.58 608.843 587.636 610.59C588.587 608.166 588.78 607.636 590.317 605.561C594.864 597.977 602.508 581.05 606.801 575.583Z"/><path fill="#D9D9D7" d="M571.274 641.612C571.149 644.378 569.097 646.887 567.634 649.242C569.262 650.514 571.312 650.195 573.824 651.789C575.597 650.965 577.627 649.892 579.503 649.488L579.599 650.008C575.42 652.165 564.076 657.116 561.287 659.168C562.026 656.762 569.579 644.41 571.274 641.612Z"/><path fill="#D9D9D7" d="M649.696 614.771C650.108 613.368 650.679 613.323 651.907 612.555L652.123 611.517C650.487 610.389 648.974 612.494 648.207 609.1L648.807 608.459C649.747 608.213 650.404 608.103 651.362 608.249C655.455 608.875 655.561 607.846 658.078 610.817C655.302 612.173 652.508 613.491 649.696 614.771Z"/><path fill="#D9D9D7" d="M672.716 603.284C670.27 602.707 665.19 602.415 663.87 600.946C667.578 600.043 673.356 599.618 676.85 601.496L672.716 603.284Z"/><path fill="#D9D9D7" d="M605.004 631.721C606.603 631.642 606.922 631.646 608.508 631.839L608.981 632.498L607.843 633.598C606.99 633.669 606.211 633.789 605.393 634.043C603.547 634.082 600.785 634.589 599.98 632.669C601.508 631.496 602.998 631.756 605.004 631.721Z"/><path fill="#D9D9D7" d="M637.758 615.719C639.549 615.585 638.785 615.378 640.208 616.04L639.896 616.755C637.627 618.036 637.119 617.801 634.375 617.641C633.019 617.619 633.176 617.589 631.825 617.285L631.728 616.736C633.96 615.688 635.299 615.825 637.758 615.719Z"/><defs><linearGradient id="gradient_11" gradientUnits="userSpaceOnUse" x1="421.40781" y1="577.75659" x2="400.79138" y2="633.66766"><stop offset="0" stop-color="#B3B4AF"/><stop offset="1" stop-color="#D9D9D6"/></linearGradient></defs><path fill="url(#gradient_11)" d="M418.332 575.769L418.918 575.957C422.782 580.829 431.832 598.518 435.36 604.873C439.914 615.293 447.22 625.8 451.856 636.385C452.729 638.38 454.176 641.198 455.25 643.07C456.679 645.769 462.923 655.502 461.999 657.84C435.158 644.184 408.226 630.707 381.204 617.411C376.621 615.106 346.57 599.603 343.363 598.92C345.57 598.722 358.367 593.876 361.704 592.84L400.157 581.129C403.814 580.049 415.981 577.259 418.332 575.769Z"/><path fill="#0B0B0A" d="M492.333 650.009L493.274 648.503C494.717 647.37 508.598 647.958 511.264 647.932C518.363 647.861 525.649 647.446 532.715 647.555C533.4 650.932 536.804 654.043 537.698 656.45C535.696 660.003 535.551 661.378 534.803 665.364C538.168 666.129 541.713 666.878 545.027 667.783L545.856 668.554C548.086 671.344 548.31 673.751 550.456 676.683L551.656 676.527L552.04 677.766C549.226 682.515 541.517 691.515 537.456 695.234L535.588 694.712C531.227 697.162 519.184 690.975 514.93 690.923C510.2 690.866 493.558 694.789 489.862 696.709L489.541 695.413C487.517 695.495 476.087 681.495 474.522 679.067C474.787 673.147 476.942 673.285 480.999 669.232C483.15 671.684 484.475 673.938 487.597 674.269C485.133 672.31 483.011 670.134 480.768 667.928L481.217 667.632C484.533 661.919 488.726 655.594 492.333 650.009Z"/><defs><linearGradient id="gradient_12" gradientUnits="userSpaceOnUse" x1="509.82358" y1="665.54956" x2="509.52771" y2="648.25995"><stop offset="0" stop-color="#363634"/><stop offset="1" stop-color="#6D6D6A"/></linearGradient></defs><path fill="url(#gradient_12)" d="M492.333 650.009L493.274 648.503C494.717 647.37 508.598 647.958 511.264 647.932C518.363 647.861 525.649 647.446 532.715 647.555C533.4 650.932 536.804 654.043 537.698 656.45C535.696 660.003 535.551 661.378 534.803 665.364C520.41 662.723 499.795 662.247 485.217 666.402C483.522 666.885 483.519 667.486 481.217 667.632C484.533 661.919 488.726 655.594 492.333 650.009Z"/><path fill="#81817E" d="M545.856 668.554C548.086 671.344 548.31 673.751 550.456 676.683L551.656 676.527L552.04 677.766C549.226 682.515 541.517 691.515 537.456 695.234L535.588 694.712C529.091 692.309 522.33 690.692 515.449 689.897C524.868 682.79 536.083 675.532 545.856 668.554Z"/><path fill="#81817E" d="M474.522 679.067C474.787 673.147 476.942 673.285 480.999 669.232C483.15 671.684 484.475 673.938 487.597 674.269C495.193 679.133 503.069 684.989 510.712 689.585C504.036 691.081 495.883 692.903 489.541 695.413C487.517 695.495 476.087 681.495 474.522 679.067Z"/><defs><linearGradient id="gradient_13" gradientUnits="userSpaceOnUse" x1="513.15039" y1="691.47455" x2="512.7608" y2="704.49286"><stop offset="0" stop-color="#50504F"/><stop offset="1" stop-color="#90908C"/></linearGradient></defs><path fill="url(#gradient_13)" d="M489.862 696.709C493.558 694.789 510.2 690.866 514.93 690.923C519.184 690.975 531.227 697.162 535.588 694.712L537.456 695.234C533.165 699.036 519.83 702.881 513.507 705.951L496.719 699.351C494.811 698.61 491.445 697.565 489.862 696.709Z"/><path fill="#343433" d="M315.219 610.371C315.707 613.529 313.229 620.466 312.213 623.725C313.696 625.703 314.543 627.081 316.528 628.578C317.051 627.966 317.136 627.715 317.536 627.011C318.561 626.419 321.652 624.8 322.68 624.872C328.139 625.259 342.697 626.936 346.969 629.061C342.216 629.373 327.16 625.037 322.889 625.622C324.986 629.712 332.384 630.162 324.688 637.699C325.325 641.872 351.817 668.058 350.85 670.298C347.704 667.514 341.262 659.67 338.263 656.181C329.147 645.58 320.367 634.831 311.184 624.254L315.219 610.371Z"/><path fill="#343433" d="M707.849 599.981C710.304 607.772 712.487 615.647 714.393 623.59C704.398 636.232 685.442 659.99 674.137 671.207C674.024 670.933 673.912 670.659 673.799 670.386C686.702 655.242 700.169 640.392 712.175 624.488C714.058 621.993 707.015 603.355 707.849 599.981Z"/><path fill="#0B0B0A" d="M564.798 661.018C566.819 661.299 568.834 661.662 569.68 663.577L568.826 664.736C566.795 664.818 564.15 665.23 562.744 663.597C563.367 661.819 563.148 662.386 564.798 661.018Z"/><path fill="#0B0B0A" d="M326.307 576.738C328.193 580.344 328.027 588.032 326.76 591.818C326.595 587.995 325.318 579.642 326.307 576.738Z"/><path fill="#0B0B0A" d="M336.255 583.224C336.723 583.889 338.364 597.319 338.536 599.242L337.724 598.573C335.931 593.818 336.284 588.335 336.255 583.224Z"/><path fill="#0B0B0A" d="M375.032 621.624C377.887 621.115 380.247 621.594 383.138 621.934L383.054 622.238C379.736 623.869 377.764 625.176 375.032 621.624Z"/><defs><linearGradient id="gradient_14" gradientUnits="userSpaceOnUse" x1="383.77295" y1="290.80164" x2="319.50745" y2="323.33444"><stop offset="0" stop-color="black"/><stop offset="1" stop-color="#3F3F3E"/></linearGradient></defs><path fill="url(#gradient_14)" d="M323.882 290.744C323.493 288.044 322.279 279.319 322.539 277.01C323.92 264.714 326.711 251.414 329.099 239.258C330.268 233.313 331.785 223.661 333.386 218.467L334.108 218.311L335.631 219.552C344.326 227.965 355.406 240.397 363.739 249.427C379.098 265.756 394.307 282.225 409.365 298.832C412.658 302.394 437.728 328.802 438.601 330.737L440.573 333.404C438.108 333.95 438.768 333.426 437.471 335.109C431.848 339.299 428.653 343.975 424.087 347.648C421.927 348.797 419.918 350.07 418.4 352.028L416.422 353.044C411.031 357.921 405.38 362.904 400.154 367.923C393.757 372.929 387.957 380.249 380.988 385.074C377.359 389.17 346.816 417.363 342.78 418.742L341.399 418.259C340.94 415.835 340.559 409.896 340.157 406.933L336.188 379.486C331.997 350.589 327.269 319.58 323.882 290.744Z"/><path fill="#343433" d="M335.631 219.552C344.326 227.965 355.406 240.397 363.739 249.427C379.098 265.756 394.307 282.225 409.365 298.832C412.658 302.394 437.728 328.802 438.601 330.737L440.573 333.404C438.108 333.95 438.768 333.426 437.471 335.109C431.848 339.299 428.653 343.975 424.087 347.648C421.927 348.797 419.918 350.07 418.4 352.028L416.422 353.044C411.839 345.132 402.944 333.059 397.602 324.962C380.943 300.2 364.764 275.12 349.073 249.735C345.174 243.321 331.986 227.119 335.631 219.552Z"/><path fill="#343433" d="M323.882 290.744C325.784 290.692 326.45 290.629 328.321 290.298C331.227 292.204 332.395 295.352 332.944 298.689C334.868 310.379 331.732 316.966 335.387 329.015C333.46 334.382 329.752 344.097 333.117 349.512C336.215 348.801 337.696 351.885 342.276 352.803C350.376 362.779 357.291 367.549 366.257 376.415C368.647 378.778 368.758 388.756 370.821 391.138C373.555 391.781 378.608 385.755 380.988 385.074C377.359 389.17 346.816 417.363 342.78 418.742L341.399 418.259C340.94 415.835 340.559 409.896 340.157 406.933L336.188 379.486C331.997 350.589 327.269 319.58 323.882 290.744Z"/><defs><linearGradient id="gradient_15" gradientUnits="userSpaceOnUse" x1="388.71457" y1="490.81699" x2="361.59619" y2="559.40027"><stop offset="0" stop-color="#464743"/><stop offset="1" stop-color="#787976"/></linearGradient></defs><path fill="url(#gradient_15)" d="M400.549 491.58C403.758 494.226 410.062 499.732 412.93 502.643L461.141 546.507L461.139 546.907L462.451 548.058L462.539 551.222C459.115 552.171 459.135 553.638 457.702 556.779C455.702 553.898 459.072 555.747 456.355 553.249C452.48 552.707 440.306 561.982 436.27 564.473C432.504 567.083 422.747 574.033 418.918 575.957L418.332 575.769C415.981 577.259 403.814 580.049 400.157 581.129L361.704 592.84C358.367 593.876 345.57 598.722 343.363 598.92C340.273 584.488 336.467 563.571 332.182 549.86L331.257 548.553C319.821 537.14 306.489 527.12 293.83 517.134C292.846 516.357 293.05 515.987 293.067 514.929C297.582 515.192 311.725 511.416 316.563 510.297L343.879 504.17C360.69 500.413 378.873 497.032 395.384 492.695C396.881 492.468 399.017 491.92 400.549 491.58Z"/><path fill="#D9D9D7" d="M332.182 549.86C334.226 547.781 344.302 550.619 347.445 551.245C354.199 552.591 361.063 554.066 367.732 555.778C374.018 557.737 382.039 561.204 388.328 563.708C398.029 567.571 408.957 571.377 418.332 575.769C415.981 577.259 403.814 580.049 400.157 581.129L361.704 592.84C358.367 593.876 345.57 598.722 343.363 598.92C340.273 584.488 336.467 563.571 332.182 549.86Z"/><defs><linearGradient id="gradient_16" gradientUnits="userSpaceOnUse" x1="445.06387" y1="521.13092" x2="409.12592" y2="541.58124"><stop offset="0" stop-color="#0A0A09"/><stop offset="1" stop-color="#292927"/></linearGradient></defs><path fill="url(#gradient_16)" d="M412.93 502.643L461.141 546.507L461.139 546.907C460.097 548.346 458.82 550.45 457.248 551.029C453.681 545.091 451.932 547.177 446.537 546.666C439.77 546.025 421.915 548.081 416.378 545.283C415.131 542.458 409.735 536.464 407.61 533.826C402.551 527.548 397.302 521.685 392.869 514.893C396.691 512.957 401.269 509.914 405.45 507.675C407.711 506.498 411.051 504.288 412.93 502.643Z"/><defs><linearGradient id="gradient_17" gradientUnits="userSpaceOnUse" x1="439.32434" y1="544.78131" x2="436.94543" y2="554.12274"><stop offset="0" stop-color="#252425"/><stop offset="1" stop-color="#434441"/></linearGradient></defs><path fill="url(#gradient_17)" d="M416.378 545.283C421.915 548.081 439.77 546.025 446.537 546.666C451.932 547.177 453.681 545.091 457.248 551.029C458.82 550.45 460.097 548.346 461.139 546.907L462.451 548.058L462.539 551.222C459.115 552.171 459.135 553.638 457.702 556.779C455.702 553.898 459.072 555.747 456.355 553.249C452.48 552.707 440.306 561.982 436.27 564.473C434.191 563.974 432.775 563.86 430.634 563.636L430.19 563.292L429.196 563.355C430.025 563.08 429.707 563.221 430.838 563.556L430.162 563.183L437.131 562.85C439.069 561.393 445.695 557.724 446.592 556.413C440.085 553.89 435.184 556.298 429.737 550.745C425.009 550.796 419.608 551.614 416.215 548.737L416.288 548.249C418.027 548.256 421.137 549.763 422.96 549.29C420.24 545.772 419.404 548.145 416.769 546.676L416.378 545.283Z"/><path fill="#343433" d="M400.549 491.58C403.758 494.226 410.062 499.732 412.93 502.643C411.051 504.288 407.711 506.498 405.45 507.675C406.266 506.589 406.286 506.64 406.891 505.444C404.761 501.173 400.774 501.65 396.674 500.343C396.039 498.61 398.127 498.182 397.925 495.731C396.369 494.493 396.439 494.445 395.384 492.695C396.881 492.468 399.017 491.92 400.549 491.58Z"/><path fill="#777874" d="M406.594 568.713C409.369 568.518 414.59 567.839 416.795 569.231C413.18 569.641 409.959 570.226 406.594 568.713Z"/><defs><linearGradient id="gradient_18" gradientUnits="userSpaceOnUse" x1="394.32883" y1="371.15082" x2="337.08777" y2="529.40424"><stop offset="0" stop-color="#777873"/><stop offset="1" stop-color="#B1B1AD"/></linearGradient></defs><path fill="url(#gradient_18)" d="M418.4 352.028C419.918 350.07 421.927 348.797 424.087 347.648C420.906 358.66 409.397 363.633 407.837 375.382L408.833 375.822L408.301 376.383C405.925 378.919 404.956 380.509 405.368 384.209C407.02 380.15 406.544 382.153 409.147 379.259L408.893 378.438C409.87 377.895 409.947 377.85 411.015 377.416L410.642 379.37C407.704 382.538 397.634 402.14 395.488 407.291C394.931 408.628 394.893 411.437 394.962 412.999C396.073 438.204 399.714 464.634 400.856 489.671L401.514 490.115L402.192 489.953C401.429 490.888 401.507 491.044 400.549 491.58C399.017 491.92 396.881 492.468 395.384 492.695C378.873 497.032 360.69 500.413 343.879 504.17L316.563 510.297C311.725 511.416 297.582 515.192 293.067 514.929C297.065 505.703 304.352 492.51 309.148 483.347L328.978 444.728C330.924 440.991 339.2 424.03 340.967 421.993C341.316 420.785 341.32 419.523 341.399 418.259L342.78 418.742C346.816 417.363 377.359 389.17 380.988 385.074C387.957 380.249 393.757 372.929 400.154 367.923C405.38 362.904 411.031 357.921 416.422 353.044L418.4 352.028Z"/><defs><linearGradient id="gradient_19" gradientUnits="userSpaceOnUse" x1="373.86981" y1="388.01462" x2="386.64136" y2="404.67441"><stop offset="0" stop-color="#545452"/><stop offset="1" stop-color="#7A7B76"/></linearGradient></defs><path fill="url(#gradient_19)" d="M418.4 352.028C419.918 350.07 421.927 348.797 424.087 347.648C420.906 358.66 409.397 363.633 407.837 375.382L408.833 375.822L408.301 376.383C405.925 378.919 404.956 380.509 405.368 384.209L403.37 385.046C403.003 383.73 404.749 382.836 404.476 380.262L404.042 379.828C401.159 382.894 398.539 393.13 396.267 397.722L396.275 397.703C395.947 396.822 395.857 396.398 395.845 395.459L395.798 395.449L395.919 396.413L395.624 395.257C394.367 394.873 393.054 394.791 391.953 395.63C383.211 402.289 380.131 411.813 369.223 416.611C364.585 418.651 362.277 420.267 356.858 421.077C350.092 422.088 346.513 418.66 340.967 421.993C341.316 420.785 341.32 419.523 341.399 418.259L342.78 418.742C346.816 417.363 377.359 389.17 380.988 385.074C387.957 380.249 393.757 372.929 400.154 367.923C405.38 362.904 411.031 357.921 416.422 353.044L418.4 352.028Z"/><path fill="#343433" d="M416.422 353.044L418.4 352.028C416.465 356.985 411.402 361.379 406.981 364.169L407.263 363.79C405.304 364.85 401.369 367.664 400.154 367.923C405.38 362.904 411.031 357.921 416.422 353.044Z"/><defs><linearGradient id="gradient_20" gradientUnits="userSpaceOnUse" x1="448.35556" y1="408.58841" x2="391.14444" y2="415.91159"><stop offset="0" stop-color="#8D8D88"/><stop offset="1" stop-color="#AFAFAB"/></linearGradient></defs><path fill="url(#gradient_20)" d="M437.471 335.109C438.768 333.426 438.108 333.95 440.573 333.404L439.102 411.615C438.833 423.007 438.223 434.814 438.535 446.215C438.559 447.11 439.864 448.335 440.47 448.945L439.551 449.285L438.672 448.199C435.836 449.834 404.848 486.184 402.192 489.953L401.514 490.115L400.856 489.671C399.714 464.634 396.073 438.204 394.962 412.999C394.893 411.437 394.931 408.628 395.488 407.291C397.634 402.14 407.704 382.538 410.642 379.37L411.015 377.416C409.947 377.85 409.87 377.895 408.893 378.438L409.147 379.259C406.544 382.153 407.02 380.15 405.368 384.209C404.956 380.509 405.925 378.919 408.301 376.383L408.833 375.822L407.837 375.382C409.397 363.633 420.906 358.66 424.087 347.648C428.653 343.975 431.848 339.299 437.471 335.109Z"/><path fill="#777874" d="M437.471 335.109C437.025 338.509 433.472 341.989 431.543 345.018C429.041 348.947 426.881 353.034 424.373 356.92C420.741 364.436 413.547 373.546 411.32 379.013L410.642 379.37L411.015 377.416C409.947 377.85 409.87 377.895 408.893 378.438L409.147 379.259C406.544 382.153 407.02 380.15 405.368 384.209C404.956 380.509 405.925 378.919 408.301 376.383L408.833 375.822L407.837 375.382C409.397 363.633 420.906 358.66 424.087 347.648C428.653 343.975 431.848 339.299 437.471 335.109Z"/><path fill="#81817E" d="M408.893 378.438C409.875 374.498 420.948 359.161 424.373 356.92C420.741 364.436 413.547 373.546 411.32 379.013L410.642 379.37L411.015 377.416C409.947 377.85 409.87 377.895 408.893 378.438Z"/><defs><linearGradient id="gradient_21" gradientUnits="userSpaceOnUse" x1="567.74567" y1="457.77576" x2="599.55219" y2="529.3725"><stop offset="0" stop-color="#696966"/><stop offset="1" stop-color="#7E7E7C"/></linearGradient></defs><path fill="url(#gradient_21)" d="M580.723 452.918C582.197 451.456 584.428 448.92 586.221 448.208L586.713 448.697C591.393 449.381 621.513 490.18 625.451 491.656C622.077 493.793 616.087 499.66 613.336 502.806C598.601 516.711 581.81 531.854 566.635 545.371L565.398 546.511L564.567 544.914C564.131 545.478 563.469 546.175 562.981 546.725C562.881 546.672 537.737 501.281 535.046 496.709C534.481 500.9 534.098 511.132 533.043 514.911C532.348 513.432 534.207 494.932 535.463 493.762C535.271 494.914 535.307 494.846 535.623 495.983L536.482 496.191L537.197 495.271C538.928 493.908 540.754 491.778 542.309 490.167C552.071 480.058 562.421 470.524 572.621 460.848C574.596 459.379 579.059 454.832 580.723 452.918Z"/><path fill="#A7A7A4" d="M580.723 452.918C582.197 451.456 584.428 448.92 586.221 448.208L586.713 448.697C585.528 455.658 583.424 462.575 582.004 469.502C577.938 489.342 573.164 509.012 568.688 528.761C567.483 534.081 566.414 539.804 564.567 544.914C564.131 545.478 563.469 546.175 562.981 546.725C562.881 546.672 537.737 501.281 535.046 496.709C534.481 500.9 534.098 511.132 533.043 514.911C532.348 513.432 534.207 494.932 535.463 493.762C535.271 494.914 535.307 494.846 535.623 495.983L536.482 496.191L537.197 495.271C538.928 493.908 540.754 491.778 542.309 490.167C552.071 480.058 562.421 470.524 572.621 460.848C574.596 459.379 579.059 454.832 580.723 452.918Z"/><path fill="#777874" d="M402.192 489.953C404.848 486.184 435.836 449.834 438.672 448.199L439.551 449.285C446.327 481.673 454.159 514.162 461.141 546.507L412.93 502.643C410.062 499.732 403.758 494.226 400.549 491.58C401.507 491.044 401.429 490.888 402.192 489.953Z"/><path fill="#A7A7A4" d="M440.47 448.945C445.507 452.986 489.977 496.028 490.01 496.038L490.339 493.816C492.314 498.658 493.997 519.273 494.318 525.008L493.907 525.389C491.702 519.313 492.957 502.516 491.02 498.348L490.253 498.18C487.95 500.086 464.177 543.971 462.451 548.058L461.139 546.907L461.141 546.507C454.159 514.162 446.327 481.673 439.551 449.285L440.47 448.945Z"/><path fill="#CFCFCB" d="M586.468 403.453C586.606 409.908 587.837 443.907 586.221 448.208C584.428 448.92 582.197 451.456 580.723 452.918C581.17 450.982 583.342 449.631 584.909 447.72C585.497 445.534 583.732 444.152 583.794 441.638C583.935 435.833 585.56 430.87 585.984 425.046C586.421 419.051 584.968 408.932 586.468 403.453Z"/><path fill="#CFCFCB" d="M537.197 495.271C537.404 494.933 539.026 492.089 538.998 492.108C540.591 491.092 539.052 491.663 539.651 489.017C540.148 488.446 540.514 488.076 541.258 487.853C547.957 485.843 565.255 466.062 571.905 460.452L572.621 460.848C562.421 470.524 552.071 480.058 542.309 490.167C540.754 491.778 538.928 493.908 537.197 495.271Z"/><defs><linearGradient id="gradient_22" gradientUnits="userSpaceOnUse" x1="558.83008" y1="388.2486" x2="744.85449" y2="484.91373"><stop offset="0" stop-color="#92928D"/><stop offset="1" stop-color="#B2B1AF"/></linearGradient></defs><path fill="url(#gradient_22)" d="M586.285 332.337C591.199 325.932 597.241 320.297 602.581 314.267C615.377 299.819 628.383 285.789 641.543 271.684L678.771 231.659C683.843 226.307 687.156 222.282 692.71 217.111C695.334 228.301 697.065 240.612 699.306 252.019C700.78 259.519 702.983 269.542 703.573 277.006C703.821 280.145 702.231 289.756 701.706 293.323C700.564 300.938 699.485 308.562 698.47 316.195L689.431 383.788C687.858 395.358 685.976 406.897 684.561 418.484L684.842 420.624L713.968 478.52C719.666 489.573 727.723 503.962 732.367 515.337C715.931 511.892 699.919 507.657 683.588 504.052C664.253 499.784 644.785 496.061 625.451 491.656C621.513 490.18 591.393 449.381 586.713 448.697L586.221 448.208C587.837 443.907 586.606 409.908 586.468 403.453C586.816 400.735 586.371 378.973 586.194 375.311C585.567 362.393 586.546 345.323 585.43 332.882L586.285 332.337Z"/><path fill="#1E1E1D" d="M586.285 332.337C591.199 325.932 597.241 320.297 602.581 314.267C615.377 299.819 628.383 285.789 641.543 271.684L678.771 231.659C683.843 226.307 687.156 222.282 692.71 217.111C695.334 228.301 697.065 240.612 699.306 252.019C700.78 259.519 702.983 269.542 703.573 277.006C703.821 280.145 702.231 289.756 701.706 293.323C700.564 300.938 699.485 308.562 698.47 316.195L689.431 383.788C687.858 395.358 685.976 406.897 684.561 418.484C683.382 419.217 684.009 419.114 682.726 419.082C670.913 408.889 659.054 397.535 647.258 387.199C643.004 383.471 628.399 371.12 625.746 367.833L620.356 363.192C616.894 360.352 612.174 356.549 609.778 352.827C601.504 347.419 595.512 340.024 588.054 334.585C587.279 333.326 587.306 333.448 586.285 332.337Z"/><path fill="#0B0B0A" d="M609.778 352.827L610.156 352.346C612.974 348.7 620.131 336.717 622.3 334.921C622.682 338.993 613.138 343.864 615.124 350.226L615.122 350.217C615.436 350.5 616.536 351.606 616.805 351.605L617.362 351.148C617.4 349.903 617.319 347.684 617.778 346.688C618.48 347.966 618.175 351.613 618.231 351.645C620.74 353.115 619.643 353.805 617.876 357.634C617.094 356.889 617.433 356.922 616.649 356.822L615.547 357.776C618.348 360.97 625.041 364.634 625.746 367.833L620.356 363.192C616.894 360.352 612.174 356.549 609.778 352.827Z"/><path fill="#0B0B0A" d="M683.758 240.483C684.019 243.543 678.636 246.925 679.727 250.408C680.02 251.345 679.643 251.46 678.989 252.508C678.468 252.323 677.948 252.138 677.428 251.953C673.083 258.031 668.435 265.586 664.394 271.96C664 272.175 664.25 272.098 663.609 272.007C670.393 261.543 677.11 251.034 683.758 240.483Z"/><defs><linearGradient id="gradient_23" gradientUnits="userSpaceOnUse" x1="653.64484" y1="382.77393" x2="633.33472" y2="418.87173"><stop offset="0" stop-color="#4D4E4B"/><stop offset="1" stop-color="#8E8F8A"/></linearGradient></defs><path fill="url(#gradient_23)" d="M588.054 334.585C595.512 340.024 601.504 347.419 609.778 352.827C612.174 356.549 616.894 360.352 620.356 363.192L625.746 367.833C628.399 371.12 643.004 383.471 647.258 387.199C659.054 397.535 670.913 408.889 682.726 419.082C684.009 419.114 683.382 419.217 684.561 418.484L684.842 420.624L684.106 420.785C682.378 422.8 680.763 429.001 679.142 431.812C672.304 443.665 660.134 434.233 651.732 428.988C655.493 439.04 654.255 435.802 659.896 443.916L659.712 444.601C655.994 442.504 653.283 433.388 650.873 430.342C642.003 419.131 642.016 407.667 629.458 399.491C629.228 399.827 629.4 399.664 628.833 399.829C626.049 390.404 616.863 381.951 612.009 373.916C606.19 364.284 596.497 352.189 591.776 342.384C590.429 339.839 588.941 337.305 588.054 334.585Z"/><path fill="#81817E" d="M591.776 342.384C597.981 343.428 609.948 365.832 613.981 371.524C618.301 377.621 627.448 387.047 629.772 393.442C629.631 395.075 629.201 398.026 629.458 399.491C629.228 399.827 629.4 399.664 628.833 399.829C626.049 390.404 616.863 381.951 612.009 373.916C606.19 364.284 596.497 352.189 591.776 342.384Z"/><path fill="#777874" d="M588.054 334.585C595.512 340.024 601.504 347.419 609.778 352.827C612.174 356.549 616.894 360.352 620.356 363.192C608.92 361.301 611.522 353.709 604.784 350.901L604.259 351.342C605.292 356.578 608.549 357.053 610.556 360.387C612.744 364.02 613.724 368.813 616.395 372.873L616.997 373.069L618.547 371.227C621.313 372.464 622.654 381.323 624.052 383.018C628.653 388.601 628.85 385.99 629.772 393.442C627.448 387.047 618.301 377.621 613.981 371.524C609.948 365.832 597.981 343.428 591.776 342.384C590.429 339.839 588.941 337.305 588.054 334.585Z"/></svg>