<svg width="165" height="32" viewBox="0 0 165 32" fill="none" xmlns="http://www.w3.org/2000/svg">
<path d="M73.7823 24.7098L64.8566 7.73926H61.1133V31.315H65.8591V19.4748L71.9736 31.3185H75.5911L81.7056 19.4748V31.315H86.4514V7.73926H82.7081L73.7823 24.7098Z" fill="#012426"/>
<path d="M103.775 7.13623C96.9197 7.13623 91.3428 12.7131 91.3428 19.5679C91.3428 26.4227 96.9197 31.9999 103.775 31.9999C110.63 31.9999 116.206 26.423 116.206 19.5679C116.206 12.7129 110.63 7.13623 103.775 7.13623ZM103.775 27.2541C99.5365 27.2541 96.0886 23.8062 96.0886 19.5679C96.0886 15.3297 99.5365 11.8821 103.775 11.8821C108.013 11.8821 111.461 15.33 111.461 19.5679C111.461 23.8059 108.013 27.2541 103.775 27.2541Z" fill="#012426"/>
<path d="M137.847 18.6876C136.301 17.5656 133.8 16.9967 130.414 16.9967C128.537 16.9967 127.164 16.8077 126.335 16.4349C125.555 16.085 125.175 15.5361 125.175 14.7572C125.175 13.7947 125.575 13.0886 126.398 12.5988C127.248 12.0929 128.538 11.8365 130.232 11.8365C131.753 11.8365 132.995 12.1258 133.921 12.6966C134.606 13.118 135.022 13.6287 135.185 14.2456H139.77C139.672 12.9786 139.278 11.8292 138.589 10.8233C137.79 9.65731 136.654 8.74197 135.213 8.10226C133.781 7.46767 132.105 7.14575 130.232 7.14575C127.135 7.14575 124.74 7.79763 123.116 9.08359C121.476 10.3824 120.644 12.2912 120.644 14.7572C120.644 17.1712 121.409 18.9486 122.917 20.0399C124.402 21.1143 126.802 21.6591 130.051 21.6591C132.046 21.6591 133.513 21.8715 134.412 22.2905C135.264 22.6883 135.678 23.2886 135.678 24.1259C135.678 25.1464 135.236 25.9082 134.325 26.4551C133.39 27.0172 132.013 27.3021 130.232 27.3021C128.57 27.3021 127.218 27.0069 126.214 26.4247C125.414 25.9615 124.956 25.3969 124.814 24.7124H120.246C120.324 26.0591 120.74 27.2713 121.49 28.3192C122.323 29.4846 123.512 30.3993 125.023 31.0377C126.522 31.6716 128.275 31.9928 130.232 31.9928C133.433 31.9928 135.918 31.3173 137.62 29.9849C139.339 28.6391 140.21 26.6678 140.21 24.1258C140.21 21.6559 139.415 19.8262 137.847 18.6875L137.847 18.6876Z" fill="#012426"/>
<path d="M161.792 18.6876C160.246 17.5656 157.745 16.9967 154.359 16.9967C152.482 16.9967 151.109 16.8077 150.28 16.4349C149.5 16.085 149.12 15.5361 149.12 14.7572C149.12 13.7947 149.52 13.0886 150.343 12.5988C151.193 12.0929 152.483 11.8365 154.177 11.8365C155.698 11.8365 156.94 12.1258 157.866 12.6966C158.55 13.118 158.967 13.6287 159.129 14.2456H163.714C163.617 12.9786 163.222 11.8292 162.533 10.8233C161.735 9.65731 160.599 8.74197 159.157 8.10226C157.726 7.46767 156.05 7.14575 154.177 7.14575C151.079 7.14575 148.685 7.79763 147.061 9.08359C145.42 10.3824 144.589 12.2912 144.589 14.7572C144.589 17.1712 145.353 18.9486 146.861 20.0399C148.346 21.1143 150.747 21.6591 153.996 21.6591C155.991 21.6591 157.458 21.8715 158.357 22.2905C159.209 22.6883 159.623 23.2886 159.623 24.1259C159.623 25.1464 159.181 25.9082 158.27 26.4551C157.335 27.0172 155.958 27.3021 154.177 27.3021C152.515 27.3021 151.163 27.0069 150.159 26.4247C149.359 25.9615 148.901 25.3969 148.759 24.7124H144.19C144.269 26.0591 144.685 27.2713 145.435 28.3192C146.268 29.4846 147.457 30.3993 148.968 31.0377C150.467 31.6716 152.219 31.9928 154.177 31.9928C157.378 31.9928 159.863 31.3173 161.565 29.9849C163.283 28.6391 164.155 26.6678 164.155 24.1258C164.155 21.6559 163.36 19.8262 161.791 18.6875L161.792 18.6876Z" fill="#012426"/>
<path d="M41.3972 21.1766V21.1464H50.7511L52.3177 16.5605H41.3972V16.4421V12.3261H55.5566V7.73926H36.6514V31.3138H56.1352V26.727H41.3972V21.1766Z" fill="#012426"/>
<path d="M31.5536 16.5546H17.4488L15.8822 21.1524H25.6598L25.6489 21.2034C24.184 24.3206 20.6159 27.0398 15.9029 27.0398C14.8517 27.0398 13.8715 26.9124 12.9898 26.6616C10.1489 25.8527 7.79308 23.986 6.3561 21.4053C4.91922 18.8246 4.57316 15.8388 5.38193 12.9979C6.19059 10.1571 8.05732 7.80116 10.638 6.36422C13.2187 4.92703 16.2045 4.5816 19.0454 5.39C22.0323 6.2403 24.4576 8.2518 25.8451 10.9648H31.2044C31.0954 10.5968 30.9963 10.3232 30.948 10.1971C29.1064 5.49208 25.2662 2.00139 20.4124 0.61968C16.2969 -0.552226 11.9718 -0.051063 8.23328 2.0307C4.495 4.11251 1.79093 7.52516 0.619545 11.6405C-0.552153 15.7558 -0.0510417 20.0811 2.03067 23.8195C4.11222 27.5581 7.52497 30.2621 11.6404 31.4336C12.9608 31.8094 14.3965 32 15.908 32C19.7816 32 23.4962 30.6107 26.456 28.1948C31.6666 23.9415 31.5567 17.0311 31.5567 17.0311L31.5537 16.5546L31.5536 16.5546Z" fill="#012426"/>
</svg>
