<svg xmlns="http://www.w3.org/2000/svg" xmlns:xlink="http://www.w3.org/1999/xlink" width="154" height="39" viewBox="0 0 154 39">
    <defs>
        <path id="logo-ovision-a" d="M1.175 10.267a18.66 18.66 0 0 0-.55 1.048c-.577 1.191-.753 2.55-.443 3.836.368 1.522 1.446 3.193 4.347 3.516 0 0 6.055.645 16.885-4.666 0 0 6.272-2.516 13.438-6.511 2.657-1.483 5.438-3.168 8.067-5.004l-9.047 3.9C30.175 2.515 24.866.088 18.966.088c-7.686 0-14.37 4.116-17.791 10.178m7.769 3.036a8.368 8.368 0 0 1-.221-.059c-3.893-1.096-2.2-4.07-2.2-4.07C9.94 2.86 16.349 2.86 16.349 2.86c7.56 0 10.823 5.981 10.823 5.981-.987.6-11.656 4.609-16.789 4.61h-.001c-.55 0-1.034-.047-1.438-.148"/>
        <radialGradient id="logo-ovision-b" cx="33.544%" cy="57.478%" r="136.757%" fx="33.544%" fy="57.478%" gradientTransform="matrix(.42456 -.20486 .08653 .95318 .143 .096)">
            <stop offset="0%" stop-color="#2CAF49"/>
            <stop offset="100%" stop-color="#002500"/>
        </radialGradient>
        <path id="logo-ovision-d" d="M38.04 10.437c-12.067 6.286-19.52 9.136-23.932 10.42-2.768.804-5.192 1.13-8.015 1.167C1.095 22.087.047 20.16.041 20.15c.02.818.094 1.622.216 2.411.323 2.09 1.6 3.94 3.5 4.872 2.025.992 3.692.505 3.692.505 8.899-1.582 18.395-7.407 18.395-7.407 4.533-2.576 9.021-5.483 13.09-8.297C46.751 6.829 53.018 1.773 55.08.078 51.595 2.632 38.04 10.437 38.04 10.437m1.918 4.852a229.985 229.985 0 0 1-13.073 8.084S9.722 32.87 3.834 31.016h-.001l.008.009c.24.278 6.765 7.492 27.276-5.381 0 0-1.84 13.413-19.129 11.765a20.864 20.864 0 0 0 8.27 1.694c10.119 0 18.502-7.137 19.987-16.453.154-.966.234-1.955.234-2.962 0-.272-.007-.543-.019-.812 0 0 11.217-9.969 12.973-13.245 0 0-5.288 4.22-13.475 9.658"/>
        <radialGradient id="logo-ovision-e" cx="30.621%" cy="59.343%" r="72.737%" fx="30.621%" fy="59.343%" gradientTransform="matrix(.62124 -.48203 .37054 .94985 -.104 .177)">
            <stop offset="0%" stop-color="#2F5BA9"/>
            <stop offset="100%" stop-color="#00063C"/>
        </radialGradient>
    </defs>
    <g fill="none" fill-rule="evenodd">
        <g transform="translate(1.502 -.08)">
            <mask id="logo-ovision-c" fill="#fff">
                <use xlink:href="#logo-ovision-a"/>
            </mask>
            <path fill="url(#logo-ovision-b)" d="M1.175 10.267a18.66 18.66 0 0 0-.55 1.048c-.577 1.191-.753 2.55-.443 3.836.368 1.522 1.446 3.193 4.347 3.516 0 0 6.055.645 16.885-4.666 0 0 6.272-2.516 13.438-6.511 2.657-1.483 5.438-3.168 8.067-5.004l-9.047 3.9C30.175 2.515 24.866.088 18.966.088c-7.686 0-14.37 4.116-17.791 10.178m7.769 3.036a8.368 8.368 0 0 1-.221-.059c-3.893-1.096-2.2-4.07-2.2-4.07C9.94 2.86 16.349 2.86 16.349 2.86c7.56 0 10.823 5.981 10.823 5.981-.987.6-11.656 4.609-16.789 4.61h-.001c-.55 0-1.034-.047-1.438-.148" mask="url(#logo-ovision-c)"/>
        </g>
        <g transform="translate(.21 -.264)">
            <mask id="logo-ovision-f" fill="#fff">
                <use xlink:href="#logo-ovision-d"/>
            </mask>
            <path fill="url(#logo-ovision-e)" d="M38.04 10.437c-12.067 6.286-19.52 9.136-23.932 10.42-2.768.804-5.192 1.13-8.015 1.167C1.095 22.087.047 20.16.041 20.15c.02.818.094 1.622.216 2.411.323 2.09 1.6 3.94 3.5 4.872 2.025.992 3.692.505 3.692.505 8.899-1.582 18.395-7.407 18.395-7.407 4.533-2.576 9.021-5.483 13.09-8.297C46.751 6.829 53.018 1.773 55.08.078 51.595 2.632 38.04 10.437 38.04 10.437m1.918 4.852a229.985 229.985 0 0 1-13.073 8.084S9.722 32.87 3.834 31.016h-.001l.008.009c.24.278 6.765 7.492 27.276-5.381 0 0-1.84 13.413-19.129 11.765a20.864 20.864 0 0 0 8.27 1.694c10.119 0 18.502-7.137 19.987-16.453.154-.966.234-1.955.234-2.962 0-.272-.007-.543-.019-.812 0 0 11.217-9.969 12.973-13.245 0 0-5.288 4.22-13.475 9.658" mask="url(#logo-ovision-f)"/>
        </g>
        <g fill="#004470">
            <path d="M62.966 25.761c-.925 0-1.78-.175-2.565-.525a6.365 6.365 0 0 1-2.044-1.435 6.476 6.476 0 0 1-1.351-2.164 7.436 7.436 0 0 1-.484-2.705c0-.982.161-1.878.484-2.688a5.96 5.96 0 0 1 1.35-2.071 6.07 6.07 0 0 1 2.045-1.326 6.858 6.858 0 0 1 2.565-.47h3.231c.962 0 1.84.16 2.638.48A5.99 5.99 0 0 1 70.89 14.2a6.059 6.059 0 0 1 1.333 2.071c.316.804.475 1.691.475 2.66a7.45 7.45 0 0 1-.484 2.706 6.504 6.504 0 0 1-1.351 2.164 6.346 6.346 0 0 1-2.054 1.435c-.791.35-1.661.525-2.61.525h-3.232zm3.231-2.338c.609 0 1.169-.11 1.68-.331a4.03 4.03 0 0 0 1.323-.911c.372-.387.66-.85.867-1.39.207-.54.31-1.123.31-1.75 0-.625-.103-1.205-.31-1.739a4.002 4.002 0 0 0-.867-1.371 3.988 3.988 0 0 0-1.323-.893 4.295 4.295 0 0 0-1.68-.322h-3.23a4.18 4.18 0 0 0-1.653.322 3.91 3.91 0 0 0-1.305.893c-.366.38-.652.835-.858 1.362a4.754 4.754 0 0 0-.31 1.749c0 .626.103 1.209.31 1.749.206.54.492 1.003.858 1.39.365.386.8.69 1.305.911.505.22 1.056.331 1.652.331h3.231zM72.879 12.378h2.83l6.024 10.309 6.006-10.31h2.665L82.755 25.19a1.757 1.757 0 0 1-.475.553 1.045 1.045 0 0 1-.638.202c-.256 0-.475-.067-.658-.202a1.76 1.76 0 0 1-.474-.553l-7.631-12.812zM92.924 25.761h2.318V12.378h-2.318zM98.638 25.761v-2.338h9.949c.62 0 1.098-.159 1.433-.479.334-.318.502-.742.502-1.27 0-.576-.168-1.009-.502-1.297-.335-.288-.813-.433-1.433-.433h-6.097a4.76 4.76 0 0 1-1.69-.285 3.65 3.65 0 0 1-1.277-.792 3.482 3.482 0 0 1-.803-1.206 4.023 4.023 0 0 1-.283-1.528c0-.54.087-1.04.264-1.5a3.22 3.22 0 0 1 .785-1.187 3.72 3.72 0 0 1 1.288-.783c.51-.19 1.095-.285 1.752-.285h9.53v2.338h-9.53c-.536 0-.95.144-1.242.432-.292.29-.437.69-.437 1.206s.148.915.446 1.197c.298.282.702.423 1.212.423h6.07c1.348 0 2.372.32 3.07.958.7.638 1.049 1.607 1.049 2.908 0 .565-.085 1.086-.254 1.565a3.383 3.383 0 0 1-.76 1.243c-.338.35-.765.622-1.28.819-.515.196-1.12.294-1.813.294h-9.95zM115.797 25.761h2.319V12.378h-2.319zM127.572 25.761c-.925 0-1.78-.175-2.565-.525a6.364 6.364 0 0 1-2.044-1.435 6.48 6.48 0 0 1-1.351-2.164 7.427 7.427 0 0 1-.484-2.705c0-.982.16-1.878.484-2.688.322-.81.772-1.5 1.35-2.071a6.068 6.068 0 0 1 2.045-1.326 6.855 6.855 0 0 1 2.565-.47h3.231c.961 0 1.84.16 2.638.48a5.978 5.978 0 0 1 2.054 1.343 6.063 6.063 0 0 1 1.333 2.071c.316.804.474 1.691.474 2.66 0 .97-.161 1.872-.483 2.706a6.497 6.497 0 0 1-1.351 2.164 6.344 6.344 0 0 1-2.054 1.435c-.792.35-1.661.525-2.61.525h-3.232zm3.231-2.338a4.19 4.19 0 0 0 1.68-.331 4.03 4.03 0 0 0 1.324-.911c.37-.387.66-.85.866-1.39.208-.54.31-1.123.31-1.75 0-.625-.102-1.205-.31-1.739a4.015 4.015 0 0 0-.866-1.371 3.988 3.988 0 0 0-1.324-.893 4.291 4.291 0 0 0-1.68-.322h-3.231c-.597 0-1.147.107-1.652.322-.505.215-.94.513-1.305.893-.366.38-.651.835-.858 1.362a4.749 4.749 0 0 0-.311 1.749c0 .626.103 1.209.31 1.749.208.54.493 1.003.859 1.39.365.386.8.69 1.305.911.505.22 1.055.331 1.652.331h3.231zM142.304 15.968v9.793h-2.209v-12.15c0-.43.107-.77.32-1.021.213-.252.502-.378.867-.378.17 0 .334.037.493.11.158.075.322.197.493.369l9.365 9.37v-9.793h2.209v12.26c0 .442-.107.785-.32 1.03-.213.246-.49.37-.83.37-.378 0-.73-.167-1.06-.498l-9.328-9.462z"/>
        </g>
    </g>
</svg>
